<?xml version="1.0" encoding="UTF-8" standalone="no"?>
<svg
   xmlns:dc="http://purl.org/dc/elements/1.1/"
   xmlns:cc="http://creativecommons.org/ns#"
   xmlns:rdf="http://www.w3.org/1999/02/22-rdf-syntax-ns#"
   xmlns:svg="http://www.w3.org/2000/svg"
   xmlns="http://www.w3.org/2000/svg"
   xmlns:sodipodi="http://sodipodi.sourceforge.net/DTD/sodipodi-0.dtd"
   xmlns:inkscape="http://www.inkscape.org/namespaces/inkscape"
   inkscape:version="1.0 (4035a4fb49, 2020-05-01)"
   sodipodi:docname="Vector.svg"
   id="svg4"
   version="1.1"
   fill="none"
   viewBox="0 0 194 174"
   height="174"
   width="194">
  <metadata
     id="metadata10">
    <rdf:RDF>
      <cc:Work
         rdf:about="">
        <dc:format>image/svg+xml</dc:format>
        <dc:type
           rdf:resource="http://purl.org/dc/dcmitype/StillImage" />
        <dc:title></dc:title>
      </cc:Work>
    </rdf:RDF>
  </metadata>
  <defs
     id="defs8" />
  <sodipodi:namedview
     inkscape:current-layer="svg4"
     inkscape:window-maximized="0"
     inkscape:window-y="101"
     inkscape:window-x="275"
     inkscape:cy="87"
     inkscape:cx="97"
     inkscape:zoom="4.2816092"
     showgrid="false"
     id="namedview6"
     inkscape:window-height="1108"
     inkscape:window-width="1695"
     inkscape:pageshadow="2"
     inkscape:pageopacity="0"
     guidetolerance="10"
     gridtolerance="10"
     objecttolerance="10"
     borderopacity="1"
     bordercolor="#666666"
     pagecolor="#ffffff" />
  <path
     style="stroke-width:1;fill:#6c584c;fill-opacity:1"
     id="path2"
     fill="#ffffff"
     d="m 193.104,158.058 0.052,-0.03 -16.684,-28.938 h 6.566 v -0.03 c 1.37,0 2.481,-1.11 2.481,-2.481 0,-0.425 -0.136,-0.805 -0.321,-1.154 l 0.043,-0.025 -15.429,-26.7637 h 3.754 v -0.0206 c 0.469,0 0.919,-0.186501 1.251,-0.518501 0.332,-0.331999 0.519,-0.782301 0.519,-1.252101 -0.007,-0.289299 -0.085,-0.5723 -0.229,-0.823399 l 0.03,-0.0184 -22.449,-38.942099 -0.023,0.0137 c -0.244,-0.5148 -0.629,-0.950101 -1.109,-1.256 -0.481,-0.3059 -1.038,-0.4699 -1.607,-0.4733 -1.2,0 -2.217,0.713301 -2.714,1.724799 l -0.011,-0.0069 -22.449,38.939799 0.004,0.0023 c -0.151,0.254501 -0.233,0.5436 -0.24,0.839499 0,0.977002 0.792,1.770602 1.77,1.770602 v 0.0206 h 3.804 L 114.684,125.4 l 0.007,0.002 c -0.211,0.357 -0.327,0.762 -0.337,1.177 0,1.371 1.111,2.481 2.481,2.481 v 0.03 h 6.627 l -4.809,8.344 -19.2357,-33.367 h 9.2667 v -0.041 c 1.933,0 3.499,-1.571 3.499,-3.504 0,-0.596702 -0.163,-1.151701 -0.426,-1.6449 l 0.034,-0.0206 -21.7728,-37.7679 h 5.2973 v -0.0275 c 0.3284,3.01e-4 0.6537,-0.0643 0.9571,-0.190101 0.3034,-0.125699 0.5791,-0.3102 0.8112,-0.542899 0.2321,-0.2327 0.4161,-0.508899 0.5415,-0.8129 0.1253,-0.304001 0.1895,-0.6298 0.1889,-0.958601 0,-0.426599 -0.1352,-0.809698 -0.323,-1.160599 L 97.5348,57.3708 65.8517,2.4242801 65.8403,2.43116 C 65.4906,1.70434 64.9436,1.09083 64.2619,0.66086801 63.5802,0.230906 62.7914,0.00187606 61.9858,0 60.2498,0 58.7612,1.03668 58.0833,2.5228999 L 26.4621,57.3708 l 0.0068,0.0046 c -0.2125,0.3588 -0.3292,0.766401 -0.3389,1.1835 -6e-4,0.3286 0.0635,0.6542 0.1887,0.958099 0.1252,0.303801 0.3089,0.579901 0.5408,0.812601 0.2319,0.2326 0.5073,0.4172 0.8104,0.543099 0.3032,0.125902 0.6282,0.190701 0.9564,0.190701 v 0.0275 h 5.3706 L 12.4802,98.4116 c -0.4661,0.6046 -0.7205,1.346099 -0.7237,2.1104 0,1.935 1.5688,3.504 3.4995,3.504 v 0.041 h 9.3533 L 1.38632,144.354 C 0.836664,145.074 0.5,145.964 0.5,146.941 c 0,2.367 1.91921,4.289 4.28502,4.289 v 0.048 H 50.0835 v 19.334 c 0,1.87 1.5138,3.388 3.3804,3.388 h 16.9087 c 1.8666,0 3.3827,-1.516 3.3827,-3.388 v -19.334 h 36.9187 l -3.891,6.75 0.007,0.004 c -0.239,0.434 -0.413,0.909 -0.413,1.441 0,1.679 1.358,3.039 3.035,3.039 v 0.034 h 32.1 v 9.039 c 0,1.326 1.074,2.399 2.395,2.399 h 11.983 c 1.324,0 2.395,-1.073 2.395,-2.399 v -9.039 h 32.178 v -0.034 c 1.677,0 3.037,-1.36 3.037,-3.039 -0.012,-0.498 -0.148,-0.984 -0.396,-1.415 z" />
</svg>
